<svg xmlns="http://www.w3.org/2000/svg" viewBox="0 0 1200 720" role="img" aria-labelledby="title desc">
<title id="title">Réunion vidéo MBotéRoom</title><desc id="desc">Illustration d'une équipe en visioconférence.</desc>
<defs>
  <linearGradient id="bg" x1="0" x2="1" y1="0" y2="1"><stop stop-color="#f2fbfa"/><stop offset="1" stop-color="#d9f3ef"/></linearGradient>
  <linearGradient id="navy" x1="0" x2="1"><stop stop-color="#063b63"/><stop offset="1" stop-color="#0b5575"/></linearGradient>
  <linearGradient id="teal" x1="0" x2="1"><stop stop-color="#08a6a6"/><stop offset="1" stop-color="#39c8bd"/></linearGradient>
  <filter id="shadow" x="-20%" y="-20%" width="140%" height="150%"><feDropShadow dx="0" dy="18" stdDeviation="22" flood-color="#073954" flood-opacity=".16"/></filter>
</defs>
<rect width="1200" height="720" rx="54" fill="url(#bg)"/>
<circle cx="1080" cy="80" r="230" fill="#08a6a6" opacity=".08"/><circle cx="120" cy="660" r="210" fill="#2f80ed" opacity=".06"/>
<g filter="url(#shadow)" transform="translate(72 68)">
  <rect width="1056" height="584" rx="42" fill="#fff"/>
  <rect x="28" y="28" width="1000" height="74" rx="24" fill="#f7fbfc"/>
  <circle cx="68" cy="65" r="8" fill="#ff6b61"/><circle cx="94" cy="65" r="8" fill="#ffc858"/><circle cx="120" cy="65" r="8" fill="#40c87c"/>
  <rect x="770" y="49" width="210" height="32" rx="16" fill="#e9f7f6"/><circle cx="802" cy="65" r="8" fill="#08a6a6"/><rect x="820" y="59" width="128" height="12" rx="6" fill="#9ccfcd"/>
  <g transform="translate(28 126)">
    <rect width="486" height="300" rx="30" fill="url(#navy)"/>
    <circle cx="243" cy="128" r="66" fill="#d7f0eb"/>
    <path d="M137 270c16-70 70-108 106-108 42 0 95 38 106 108" fill="#08a6a6"/>
    <circle cx="218" cy="119" r="7" fill="#063b63"/><circle cx="267" cy="119" r="7" fill="#063b63"/><path d="M222 146c13 13 29 13 42 0" fill="none" stroke="#063b63" stroke-width="8" stroke-linecap="round"/>
    <rect x="24" y="24" width="124" height="34" rx="17" fill="#fff" opacity=".92"/><circle cx="47" cy="41" r="7" fill="#22b573"/><rect x="62" y="35" width="62" height="12" rx="6" fill="#b7cad5"/>
  </g>
  <g transform="translate(538 126)">
    <rect width="234" height="142" rx="26" fill="#e8f6f5"/>
    <circle cx="117" cy="62" r="31" fill="#0d5663"/><path d="M58 126c13-38 35-58 59-58 26 0 50 21 59 58" fill="#f8644d"/>
    <circle cx="106" cy="59" r="4" fill="#fff"/><circle cx="128" cy="59" r="4" fill="#fff"/>
  </g>
  <g transform="translate(794 126)">
    <rect width="234" height="142" rx="26" fill="#efe9ff"/>
    <circle cx="117" cy="62" r="31" fill="#6c4ad5"/><path d="M58 126c11-38 35-58 59-58 25 0 47 19 59 58" fill="#063b63"/>
    <circle cx="106" cy="59" r="4" fill="#fff"/><circle cx="128" cy="59" r="4" fill="#fff"/>
  </g>
  <g transform="translate(538 284)">
    <rect width="234" height="142" rx="26" fill="#fff0ed"/>
    <circle cx="117" cy="62" r="31" fill="#b96c4c"/><path d="M58 126c13-39 35-58 59-58 24 0 47 20 59 58" fill="#08a6a6"/>
    <circle cx="106" cy="59" r="4" fill="#fff"/><circle cx="128" cy="59" r="4" fill="#fff"/>
  </g>
  <g transform="translate(794 284)">
    <rect width="234" height="142" rx="26" fill="#edf4ff"/>
    <circle cx="117" cy="62" r="31" fill="#315b83"/><path d="M58 126c13-39 35-58 59-58 25 0 48 20 59 58" fill="#2f80ed"/>
    <circle cx="106" cy="59" r="4" fill="#fff"/><circle cx="128" cy="59" r="4" fill="#fff"/>
  </g>
  <g transform="translate(297 466)">
    <rect width="462" height="76" rx="38" fill="#0c2340"/>
    <circle cx="63" cy="38" r="22" fill="#08a6a6"/><path d="M53 31h20v15H53z" fill="#fff"/><path d="m73 34 10-6v21l-10-6z" fill="#fff"/>
    <circle cx="145" cy="38" r="22" fill="#fff" opacity=".12"/><path d="M145 27v22M136 40c2 7 16 7 18 0" fill="none" stroke="#fff" stroke-width="4" stroke-linecap="round"/>
    <circle cx="317" cy="38" r="22" fill="#fff" opacity=".12"/><path d="M307 31h20v15h-20z" fill="none" stroke="#fff" stroke-width="3"/>
    <circle cx="399" cy="38" r="22" fill="#ff6b61"/><path d="M388 39c7-7 15-7 22 0" fill="none" stroke="#fff" stroke-width="4" stroke-linecap="round"/>
  </g>
</g>
</svg>